<svg width="24" height="24" viewBox="0 0 24 24" fill="none" xmlns="http://www.w3.org/2000/svg">
<path fill-rule="evenodd" clip-rule="evenodd" d="M17.6569 6.3433C16.4853 5.17173 14.5858 5.17173 13.4142 6.3433L12 7.75752C11.6095 8.14804 10.9763 8.14804 10.5858 7.75752C10.1953 7.36699 10.1953 6.73383 10.5858 6.3433L12 4.92909C13.9526 2.97647 17.1185 2.97647 19.0711 4.92909C21.0237 6.88171 21.0237 10.0475 19.0711 12.0002L17.6569 13.4144C17.2663 13.8049 16.6332 13.8049 16.2426 13.4144C15.8521 13.0238 15.8521 12.3907 16.2426 12.0002L17.6569 10.5859C18.8284 9.41437 18.8284 7.51487 17.6569 6.3433ZM6.34315 17.657C5.17158 16.4854 5.17158 14.5859 6.34315 13.4144L7.75736 12.0002C8.14789 11.6096 8.14789 10.9765 7.75736 10.5859C7.36684 10.1954 6.73367 10.1954 6.34315 10.5859L4.92894 12.0002C2.97632 13.9528 2.97631 17.1186 4.92894 19.0712C6.88156 21.0238 10.0474 21.0238 12 19.0712L13.4142 17.657C13.8047 17.2665 13.8047 16.6333 13.4142 16.2428C13.0237 15.8523 12.3905 15.8523 12 16.2428L10.5858 17.657C9.41422 18.8286 7.51472 18.8286 6.34315 17.657ZM15.5355 9.87884C15.9261 9.48831 15.9261 8.85515 15.5355 8.46462C15.145 8.0741 14.5118 8.0741 14.1213 8.46462L8.46447 14.1215C8.07395 14.512 8.07395 15.1452 8.46447 15.5357C8.85499 15.9262 9.48816 15.9262 9.87868 15.5357L15.5355 9.87884Z" fill="#0A0A0A"/>
</svg>
