<svg width="40" height="40" viewBox="0 0 40 40" fill="none" xmlns="http://www.w3.org/2000/svg">
<path fill-rule="evenodd" clip-rule="evenodd" d="M12.775 5.8335C8.55831 5.8335 5.83331 8.72183 5.83331 13.1935V26.8068C5.83331 31.2785 8.55831 34.1668 12.775 34.1668H27.2216C31.44 34.1668 34.1666 31.2785 34.1666 26.8068V13.1935C34.1666 8.72183 31.44 5.8335 27.2233 5.8335H12.775ZM27.2216 36.6668H12.775C7.12665 36.6668 3.33331 32.7035 3.33331 26.8068V13.1935C3.33331 7.29683 7.12665 3.3335 12.775 3.3335H27.2233C32.8716 3.3335 36.6666 7.29683 36.6666 13.1935V26.8068C36.6666 32.7035 32.8716 36.6668 27.2216 36.6668Z" fill="#E0E3E6"/>
</svg>
