<svg width="24" height="24" viewBox="0 0 24 24" fill="none" xmlns="http://www.w3.org/2000/svg">
<path fill-rule="evenodd" clip-rule="evenodd" d="M11.921 15.9961C7.66 15.9961 5.5 16.7281 5.5 18.1731C5.5 19.6311 7.66 20.3701 11.921 20.3701C16.181 20.3701 18.34 19.6381 18.34 18.1931C18.34 16.7351 16.181 15.9961 11.921 15.9961ZM11.921 21.8701C9.962 21.8701 4 21.8701 4 18.1731C4 14.8771 8.521 14.4961 11.921 14.4961C13.88 14.4961 19.84 14.4961 19.84 18.1931C19.84 21.4891 15.32 21.8701 11.921 21.8701Z" fill="#397ED0"/>
<path d="M11.921 15.7961C9.78427 15.7961 8.1526 15.979 7.04841 16.3533C5.94903 16.726 5.3 17.3189 5.3 18.1731H5.7C5.7 17.5823 6.13097 17.0867 7.17684 16.7321C8.2179 16.3792 9.79673 16.1961 11.921 16.1961V15.7961ZM5.3 18.1731C5.3 19.0328 5.94751 19.6311 7.04788 20.0076C8.1523 20.3855 9.78419 20.5701 11.921 20.5701V20.1701C9.79681 20.1701 8.2182 19.9852 7.17737 19.6291C6.13249 19.2716 5.7 18.7714 5.7 18.1731H5.3ZM11.921 20.5701C14.0572 20.5701 15.6884 20.3872 16.7922 20.0129C17.8913 19.6402 18.54 19.0473 18.54 18.1931H18.14C18.14 18.7839 17.7092 19.2795 16.6638 19.6341C15.6231 19.987 14.0448 20.1701 11.921 20.1701V20.5701ZM18.54 18.1931C18.54 17.3335 17.8928 16.7351 16.7928 16.3586C15.6887 15.9807 14.0573 15.7961 11.921 15.7961V16.1961C14.0447 16.1961 15.6228 16.381 16.6632 16.7371C17.7077 17.0946 18.14 17.5947 18.14 18.1931H18.54ZM11.921 21.6701C10.9387 21.6701 8.98378 21.6691 7.27734 21.2147C6.42436 20.9876 5.65131 20.6515 5.09445 20.1604C4.54425 19.6752 4.2 19.0352 4.2 18.1731H3.8C3.8 19.1595 4.201 19.9058 4.82989 20.4604C5.45213 21.0092 6.29201 21.3663 7.17441 21.6012C8.93872 22.0711 10.9443 22.0701 11.921 22.0701V21.6701ZM4.2 18.1731C4.2 17.4003 4.46292 16.808 4.90414 16.3462C5.35007 15.8795 5.9876 15.5366 6.74752 15.2887C8.27006 14.7922 10.2224 14.6961 11.921 14.6961V14.2961C10.2196 14.2961 8.21144 14.3905 6.62348 14.9085C5.82815 15.1679 5.12293 15.5382 4.61492 16.0699C4.1022 16.6065 3.8 17.2979 3.8 18.1731H4.2ZM11.921 14.6961C12.9033 14.6961 14.8577 14.6971 16.5636 15.1515C17.4164 15.3786 18.1892 15.7147 18.7458 16.2057C19.2959 16.6909 19.64 17.331 19.64 18.1931H20.04C20.04 17.2067 19.6391 16.4604 19.0104 15.9058C18.3884 15.357 17.5488 14.9999 16.6666 14.765C14.9028 14.2951 12.8977 14.2961 11.921 14.2961V14.6961ZM19.64 18.1931C19.64 18.9659 19.3771 19.5582 18.936 20.02C18.4902 20.4867 17.8528 20.8296 17.0931 21.0775C15.5709 21.574 13.6191 21.6701 11.921 21.6701V22.0701C13.6219 22.0701 15.6296 21.9757 17.2172 21.4577C18.0123 21.1983 18.7174 20.828 19.2253 20.2963C19.7379 19.7596 20.04 19.0683 20.04 18.1931H19.64Z" fill="#397ED0"/>
<path fill-rule="evenodd" clip-rule="evenodd" d="M11.9209 3.42776C9.77989 3.42776 8.03789 5.16876 8.03789 7.30976C8.03089 9.44376 9.75989 11.1838 11.8919 11.1918L11.9209 11.9058V11.1918C14.0609 11.1918 15.8019 9.44976 15.8019 7.30976C15.8019 5.16876 14.0609 3.42776 11.9209 3.42776ZM11.9209 12.6188H11.8889C8.9669 12.6098 6.59989 10.2268 6.60989 7.30676C6.60989 4.38176 8.99189 1.99976 11.9209 1.99976C14.8489 1.99976 17.2299 4.38176 17.2299 7.30976C17.2299 10.2378 14.8489 12.6188 11.9209 12.6188Z" fill="#397ED0"/>
<path d="M8.03789 7.30976L8.23789 7.31041V7.30976H8.03789ZM11.8919 11.1918L12.0917 11.1836L12.084 10.9925L11.8926 10.9918L11.8919 11.1918ZM11.9209 11.9058L11.7211 11.9139L12.1209 11.9058H11.9209ZM11.9209 11.1918V10.9918H11.7209V11.1918H11.9209ZM11.8889 12.6188L11.8883 12.8188H11.8889V12.6188ZM6.60989 7.30676L6.80989 7.30744V7.30676H6.60989ZM11.9209 3.22776C9.6695 3.22776 7.83789 5.05823 7.83789 7.30976H8.23789C8.23789 5.27928 9.89028 3.62776 11.9209 3.62776V3.22776ZM7.8379 7.3091C7.83053 9.55353 9.64874 11.3833 11.8911 11.3918L11.8926 10.9918C9.87105 10.9842 8.23126 9.33398 8.23789 7.31041L7.8379 7.3091ZM11.6921 11.1999L11.7211 11.9139L12.1207 11.8976L12.0917 11.1836L11.6921 11.1999ZM12.1209 11.9058V11.1918H11.7209V11.9058H12.1209ZM11.9209 11.3918C14.1714 11.3918 16.0019 9.56015 16.0019 7.30976H15.6019C15.6019 9.33937 13.9504 10.9918 11.9209 10.9918V11.3918ZM16.0019 7.30976C16.0019 5.05833 14.1714 3.22776 11.9209 3.22776V3.62776C13.9504 3.62776 15.6019 5.27918 15.6019 7.30976H16.0019ZM11.9209 12.4188H11.8889V12.8188H11.9209V12.4188ZM11.8895 12.4188C9.07797 12.4101 6.80027 10.1169 6.80989 7.30744L6.4099 7.30607C6.39952 10.3366 8.85582 12.8094 11.8883 12.8188L11.8895 12.4188ZM6.80989 7.30676C6.80989 4.49231 9.10225 2.19976 11.9209 2.19976V1.79976C8.88154 1.79976 6.40989 4.2712 6.40989 7.30676H6.80989ZM11.9209 2.19976C14.7384 2.19976 17.0299 4.49216 17.0299 7.30976H17.4299C17.4299 4.27135 14.9594 1.79976 11.9209 1.79976V2.19976ZM17.0299 7.30976C17.0299 10.1273 14.7384 12.4188 11.9209 12.4188V12.8188C14.9594 12.8188 17.4299 10.3482 17.4299 7.30976H17.0299Z" fill="#397ED0"/>
</svg>
