<svg width="14" height="14" viewBox="0 0 14 14" fill="none" xmlns="http://www.w3.org/2000/svg">
<path fill-rule="evenodd" clip-rule="evenodd" d="M12.6095 6.32708C12.4402 6.76231 12.4402 7.24518 12.6095 7.68041L12.7087 7.96624C13.0701 8.91002 12.6325 9.97175 11.7109 10.3871L11.4483 10.5037C11.0176 10.6893 10.6692 11.0252 10.468 11.4487L10.3513 11.7112C9.93584 12.6325 8.87376 13.07 7.92968 12.7087L7.66126 12.6096C7.22589 12.4403 6.74286 12.4403 6.30749 12.6096L6.03907 12.7087C5.09499 13.07 4.03291 12.6325 3.61745 11.7112L3.50075 11.4487C3.31512 11.0182 2.97912 10.6698 2.55544 10.4687L2.29286 10.3521C1.3713 9.93675 0.933675 8.87502 1.29503 7.93124L1.39423 7.66291C1.56357 7.22768 1.56357 6.74481 1.39423 6.30958L1.29503 6.04124C0.933675 5.09747 1.3713 4.03573 2.29286 3.62041L2.55544 3.50374C2.97302 3.31128 3.30822 2.97619 3.50075 2.55874L3.63496 2.29624C4.05087 1.36574 5.12503 0.926452 6.07408 1.29874L6.3425 1.39791C6.77787 1.56719 7.2609 1.56719 7.69627 1.39791L7.96469 1.29874C8.90878 0.9375 9.97085 1.37499 10.3863 2.29624L10.503 2.55874C10.6955 2.97619 11.0307 3.31128 11.4483 3.50374L11.7109 3.63791C12.6325 4.05323 13.0701 5.11497 12.7087 6.05874L12.6095 6.32708ZM6.2608 8.95796L9.5402 5.67963C9.64764 5.56696 9.64764 5.3898 9.5402 5.27713L9.23093 4.96796C9.11748 4.85679 8.93591 4.85679 8.82246 4.96796L6.05657 7.73296L5.18128 6.86379C5.12834 6.8074 5.05442 6.77541 4.97705 6.77541C4.89969 6.77541 4.82576 6.8074 4.77282 6.86379L4.46355 7.17296C4.40832 7.22773 4.37725 7.30228 4.37725 7.38004C4.37725 7.45781 4.40832 7.53236 4.46355 7.58713L5.85234 8.95796C5.90528 9.01436 5.9792 9.04635 6.05657 9.04635C6.13394 9.04635 6.20786 9.01436 6.2608 8.95796Z" fill="#397ED0"/>
</svg>
