<svg width="24" height="24" viewBox="0 0 24 24" fill="none" xmlns="http://www.w3.org/2000/svg">
<path d="M15.78 11.2799C15.9207 11.4204 15.9999 11.611 16 11.8099V12.1899C15.9977 12.3883 15.9189 12.5781 15.78 12.7199L10.64 17.8499C10.5462 17.9445 10.4184 17.9978 10.285 17.9978C10.1517 17.9978 10.0239 17.9445 9.93004 17.8499L9.22004 17.1399C9.12598 17.0477 9.07297 16.9215 9.07297 16.7899C9.07297 16.6582 9.12598 16.532 9.22004 16.4399L13.67 11.9999L9.22004 7.55985C9.12539 7.46597 9.07214 7.33817 9.07214 7.20485C9.07214 7.07153 9.12539 6.94374 9.22004 6.84985L9.93004 6.14985C10.0239 6.0552 10.1517 6.00195 10.285 6.00195C10.4184 6.00195 10.5462 6.0552 10.64 6.14985L15.78 11.2799Z" fill="#ABAFB3"/>
</svg>
