<svg width="24" height="24" viewBox="0 0 24 24" fill="none" xmlns="http://www.w3.org/2000/svg">
<path fill-rule="evenodd" clip-rule="evenodd" d="M19.837 10.076H3.67108C3.29559 10.076 2.99084 9.7713 2.99084 9.39581C2.99084 9.02032 3.29559 8.71558 3.67108 8.71558H19.837C20.2125 8.71558 20.5173 9.02032 20.5173 9.39581C20.5173 9.7713 20.2125 10.076 19.837 10.076Z" fill="#AA68FD"/>
<path d="M19.837 10.076H3.67108C3.29559 10.076 2.99084 9.7713 2.99084 9.39581C2.99084 9.02032 3.29559 8.71558 3.67108 8.71558H19.837C20.2125 8.71558 20.5173 9.02032 20.5173 9.39581C20.5173 9.7713 20.2125 10.076 19.837 10.076" stroke="#AA68FD" stroke-width="0.4"/>
<path fill-rule="evenodd" clip-rule="evenodd" d="M15.7871 13.618C15.4116 13.618 15.1033 13.3133 15.1033 12.9378C15.1033 12.5623 15.4035 12.2576 15.779 12.2576H15.7871C16.1626 12.2576 16.4674 12.5623 16.4674 12.9378C16.4674 13.3133 16.1626 13.618 15.7871 13.618Z" fill="#AA68FD"/>
<path d="M15.7871 13.618C15.4116 13.618 15.1033 13.3133 15.1033 12.9378C15.1033 12.5623 15.4035 12.2576 15.779 12.2576H15.7871C16.1626 12.2576 16.4674 12.5623 16.4674 12.9378C16.4674 13.3133 16.1626 13.618 15.7871 13.618" stroke="#AA68FD" stroke-width="0.4"/>
<path fill-rule="evenodd" clip-rule="evenodd" d="M11.7625 13.618C11.387 13.618 11.0786 13.3133 11.0786 12.9378C11.0786 12.5623 11.3788 12.2576 11.7543 12.2576H11.7625C12.138 12.2576 12.4427 12.5623 12.4427 12.9378C12.4427 13.3133 12.138 13.618 11.7625 13.618Z" fill="#AA68FD"/>
<path d="M11.7625 13.618C11.387 13.618 11.0786 13.3133 11.0786 12.9378C11.0786 12.5623 11.3788 12.2576 11.7543 12.2576H11.7625C12.138 12.2576 12.4427 12.5623 12.4427 12.9378C12.4427 13.3133 12.138 13.618 11.7625 13.618" stroke="#AA68FD" stroke-width="0.4"/>
<path fill-rule="evenodd" clip-rule="evenodd" d="M7.72932 13.618C7.35383 13.618 7.04456 13.3133 7.04456 12.9378C7.04456 12.5623 7.34567 12.2576 7.72116 12.2576H7.72932C8.10481 12.2576 8.40956 12.5623 8.40956 12.9378C8.40956 13.3133 8.10481 13.618 7.72932 13.618Z" fill="#AA68FD"/>
<path d="M7.72932 13.618C7.35383 13.618 7.04456 13.3133 7.04456 12.9378C7.04456 12.5623 7.34567 12.2576 7.72116 12.2576H7.72932C8.10481 12.2576 8.40956 12.5623 8.40956 12.9378C8.40956 13.3133 8.10481 13.618 7.72932 13.618" stroke="#AA68FD" stroke-width="0.4"/>
<path fill-rule="evenodd" clip-rule="evenodd" d="M15.7871 17.1432C15.4116 17.1432 15.1033 16.8384 15.1033 16.4629C15.1033 16.0875 15.4035 15.7827 15.779 15.7827H15.7871C16.1626 15.7827 16.4674 16.0875 16.4674 16.4629C16.4674 16.8384 16.1626 17.1432 15.7871 17.1432Z" fill="#AA68FD"/>
<path d="M15.7871 17.1432C15.4116 17.1432 15.1033 16.8384 15.1033 16.4629C15.1033 16.0875 15.4035 15.7827 15.779 15.7827H15.7871C16.1626 15.7827 16.4674 16.0875 16.4674 16.4629C16.4674 16.8384 16.1626 17.1432 15.7871 17.1432" stroke="#AA68FD" stroke-width="0.4"/>
<path fill-rule="evenodd" clip-rule="evenodd" d="M11.7625 17.1432C11.387 17.1432 11.0786 16.8384 11.0786 16.4629C11.0786 16.0875 11.3788 15.7827 11.7543 15.7827H11.7625C12.138 15.7827 12.4427 16.0875 12.4427 16.4629C12.4427 16.8384 12.138 17.1432 11.7625 17.1432Z" fill="#AA68FD"/>
<path d="M11.7625 17.1432C11.387 17.1432 11.0786 16.8384 11.0786 16.4629C11.0786 16.0875 11.3788 15.7827 11.7543 15.7827H11.7625C12.138 15.7827 12.4427 16.0875 12.4427 16.4629C12.4427 16.8384 12.138 17.1432 11.7625 17.1432" stroke="#AA68FD" stroke-width="0.4"/>
<path fill-rule="evenodd" clip-rule="evenodd" d="M7.72932 17.1432C7.35383 17.1432 7.04456 16.8384 7.04456 16.4629C7.04456 16.0875 7.34567 15.7827 7.72116 15.7827H7.72932C8.10481 15.7827 8.40956 16.0875 8.40956 16.4629C8.40956 16.8384 8.10481 17.1432 7.72932 17.1432Z" fill="#AA68FD"/>
<path d="M7.72932 17.1432C7.35383 17.1432 7.04456 16.8384 7.04456 16.4629C7.04456 16.0875 7.34567 15.7827 7.72116 15.7827H7.72932C8.10481 15.7827 8.40956 16.0875 8.40956 16.4629C8.40956 16.8384 8.10481 17.1432 7.72932 17.1432" stroke="#AA68FD" stroke-width="0.4"/>
<path fill-rule="evenodd" clip-rule="evenodd" d="M15.4174 6.34533C15.0419 6.34533 14.7372 6.04058 14.7372 5.66509V2.68023C14.7372 2.30474 15.0419 2 15.4174 2C15.7929 2 16.0976 2.30474 16.0976 2.68023V5.66509C16.0976 6.04058 15.7929 6.34533 15.4174 6.34533Z" fill="#AA68FD"/>
<path d="M15.4174 6.34533C15.0419 6.34533 14.7372 6.04058 14.7372 5.66509V2.68023C14.7372 2.30474 15.0419 2 15.4174 2C15.7929 2 16.0976 2.30474 16.0976 2.68023V5.66509C16.0976 6.04058 15.7929 6.34533 15.4174 6.34533" stroke="#AA68FD" stroke-width="0.4"/>
<path fill-rule="evenodd" clip-rule="evenodd" d="M8.09063 6.34533C7.71514 6.34533 7.4104 6.04058 7.4104 5.66509V2.68023C7.4104 2.30474 7.71514 2 8.09063 2C8.46612 2 8.77087 2.30474 8.77087 2.68023V5.66509C8.77087 6.04058 8.46612 6.34533 8.09063 6.34533Z" fill="#AA68FD"/>
<path d="M8.09063 6.34533C7.71514 6.34533 7.4104 6.04058 7.4104 5.66509V2.68023C7.4104 2.30474 7.71514 2 8.09063 2C8.46612 2 8.77087 2.30474 8.77087 2.68023V5.66509C8.77087 6.04058 8.46612 6.34533 8.09063 6.34533" stroke="#AA68FD" stroke-width="0.4"/>
<path fill-rule="evenodd" clip-rule="evenodd" d="M7.9144 4.7926C5.56261 4.7926 4.26745 6.04695 4.26745 8.32436V16.5316C4.26745 18.8589 5.56261 20.1396 7.9144 20.1396H15.5856C17.9374 20.1396 19.2326 18.8825 19.2326 16.6005V8.32436C19.2362 7.20425 18.9351 6.33355 18.3374 5.73495C17.7224 5.1182 16.7747 4.7926 15.5938 4.7926H7.9144ZM15.5856 21.5H7.9144C4.82615 21.5 2.90698 19.5963 2.90698 16.5316V8.32436C2.90698 5.30594 4.82615 3.43213 7.9144 3.43213H15.5938C17.1438 3.43213 18.4254 3.8965 19.3006 4.77355C20.1504 5.62701 20.5976 6.85415 20.593 8.32618V16.6005C20.593 19.6226 18.6739 21.5 15.5856 21.5Z" fill="#AA68FD"/>
<path d="M19.2326 8.32436L19.0326 8.32372V8.32436H19.2326ZM18.3374 5.73495L18.1958 5.87616L18.1959 5.87626L18.3374 5.73495ZM19.3006 4.77355L19.4423 4.63243L19.4422 4.63227L19.3006 4.77355ZM20.593 8.32618L20.393 8.32556V8.32618H20.593ZM7.9144 4.5926C6.70446 4.5926 5.73607 4.91561 5.06987 5.56078C4.40268 6.20691 4.06745 7.14815 4.06745 8.32436H4.46745C4.46745 7.22316 4.7798 6.39852 5.34814 5.84812C5.91747 5.29676 6.77256 4.9926 7.9144 4.9926V4.5926ZM4.06745 8.32436V16.5316H4.46745V8.32436H4.06745ZM4.06745 16.5316C4.06745 17.7316 4.40196 18.6913 5.06836 19.3505C5.73441 20.0093 6.70337 20.3396 7.9144 20.3396V19.9396C6.77364 19.9396 5.91913 19.6294 5.34965 19.0661C4.78052 18.5031 4.46745 17.6589 4.46745 16.5316H4.06745ZM7.9144 20.3396H15.5856V19.9396H7.9144V20.3396ZM15.5856 20.3396C16.7957 20.3396 17.7641 20.0158 18.4303 19.3693C19.0974 18.7219 19.4326 17.7789 19.4326 16.6005H19.0326C19.0326 17.7041 18.7201 18.5306 18.1517 19.0822C17.5824 19.6348 16.7273 19.9396 15.5856 19.9396V20.3396ZM19.4326 16.6005V8.32436H19.0326V16.6005H19.4326ZM19.4326 8.32501C19.4363 7.16953 19.1252 6.24088 18.4789 5.59363L18.1959 5.87626C18.745 6.42622 19.0361 7.23896 19.0326 8.32372L19.4326 8.32501ZM18.479 5.59373C17.8148 4.92753 16.8084 4.5926 15.5938 4.5926V4.9926C16.7409 4.9926 17.6301 5.30887 18.1958 5.87616L18.479 5.59373ZM15.5938 4.5926H7.9144V4.9926H15.5938V4.5926ZM15.5856 21.3H7.9144V21.7H15.5856V21.3ZM7.9144 21.3C6.4117 21.3 5.21447 20.8376 4.39346 20.0231C3.57263 19.2087 3.10698 18.0216 3.10698 16.5316H2.70698C2.70698 18.1063 3.20092 19.4034 4.11173 20.307C5.02237 21.2105 6.32885 21.7 7.9144 21.7V21.3ZM3.10698 16.5316V8.32436H2.70698V16.5316H3.10698ZM3.10698 8.32436C3.10698 6.85839 3.57204 5.69071 4.39235 4.88941C5.2132 4.08758 6.4108 3.63213 7.9144 3.63213V3.23213C6.32975 3.23213 5.02364 3.71358 4.11284 4.60327C3.20151 5.49348 2.70698 6.77191 2.70698 8.32436H3.10698ZM7.9144 3.63213H15.5938V3.23213H7.9144V3.63213ZM15.5938 3.63213C17.1047 3.63213 18.3301 4.08423 19.159 4.91482L19.4422 4.63227C18.5206 3.70877 17.1829 3.23213 15.5938 3.23213V3.63213ZM19.1589 4.91467C19.9633 5.72252 20.3974 6.89421 20.393 8.32556L20.793 8.32679C20.7977 6.81409 20.3376 5.53151 19.4423 4.63243L19.1589 4.91467ZM20.393 8.32618V16.6005H20.793V8.32618H20.393ZM20.393 16.6005C20.393 18.0684 19.9279 19.2379 19.1075 20.0406C18.2867 20.8437 17.0891 21.3 15.5856 21.3V21.7C17.1704 21.7 18.4765 21.2176 19.3873 20.3265C20.2986 19.4349 20.793 18.1547 20.793 16.6005H20.393Z" fill="#AA68FD"/>
</svg>
