<svg width="74" height="63" viewBox="0 0 74 63" fill="none" xmlns="http://www.w3.org/2000/svg">
<path d="M66.4739 21.9767C70.5197 21.9767 73.7995 25.2565 73.7995 29.3023V63H59.1483V29.3023C59.1483 25.2565 62.4281 21.9767 66.4739 21.9767ZM21.7192 0L23.8425 0.0394193C32.891 0.381054 39.9596 2.94331 45.048 7.7262C50.5279 12.877 53.2678 20.317 53.2678 30.0463C53.2678 40.5196 50.3848 48.5892 44.6188 54.2551C39.2372 59.5432 31.8177 62.3636 22.3605 62.7161L20.3027 62.7539H0V0H21.7192ZM24.4694 23.9441H22.4122V38.5952H23.9864C26.1331 38.5952 27.7073 37.9721 28.7091 36.7258C29.7109 35.4795 30.2118 33.5743 30.2118 31.0102C30.2118 28.6131 29.7377 26.8361 28.7896 25.6793C27.8415 24.5225 26.4014 23.9441 24.4694 23.9441ZM66.4739 0C70.5197 0 73.7995 3.27977 73.7995 7.32558C73.7995 11.3714 70.5197 14.6512 66.4739 14.6512C62.4281 14.6512 59.1483 11.3714 59.1483 7.32558C59.1483 3.27977 62.4281 0 66.4739 0Z" fill="white"/>
<path d="M66.4739 21.9767C70.5197 21.9767 73.7995 25.2565 73.7995 29.3023V63H59.1484V29.3023C59.1484 25.2565 62.4281 21.9767 66.4739 21.9767ZM66.4739 0C70.5197 0 73.7995 3.27977 73.7995 7.32558C73.7995 11.3714 70.5197 14.6512 66.4739 14.6512C62.4281 14.6512 59.1484 11.3714 59.1484 7.32558C59.1484 3.27977 62.4281 0 66.4739 0Z" fill="#0A0A0A"/>
</svg>
