<svg width="24" height="24" viewBox="0 0 24 24" fill="none" xmlns="http://www.w3.org/2000/svg">
<path fill-rule="evenodd" clip-rule="evenodd" d="M2 12C2 6.47715 6.47715 2 12 2C17.5228 2 22 6.47715 22 12C22 17.5228 17.5228 22 12 22C6.47715 22 2 17.5228 2 12ZM4 12C4 16.4183 7.58172 20 12 20C16.4183 20 20 16.4183 20 12C20 7.58172 16.4183 4 12 4C7.58172 4 4 7.58172 4 12ZM11.9999 18.25C11.3178 18.25 10.7726 17.6826 10.7998 17.001L11.0249 11.3743C11.0458 10.851 11.4762 10.4375 11.9999 10.4375C12.5236 10.4375 12.9539 10.8509 12.9748 11.3742L13.1999 17.001C13.2272 17.6826 12.682 18.25 11.9999 18.25ZM10.5625 7.46875C10.5625 8.2454 11.1921 8.875 11.9688 8.875C12.7454 8.875 13.375 8.2454 13.375 7.46875C13.375 6.6921 12.7454 6.0625 11.9688 6.0625C11.1921 6.0625 10.5625 6.6921 10.5625 7.46875Z" fill="#0A0A0A"/>
</svg>
