<svg width="40" height="40" viewBox="0 0 40 40" fill="none" xmlns="http://www.w3.org/2000/svg">
<path fill-rule="evenodd" clip-rule="evenodd" d="M27.2216 36.6668H12.775C7.12665 36.6668 3.33331 32.7035 3.33331 26.8068V13.1935C3.33331 7.29683 7.12665 3.3335 12.775 3.3335H27.2233C32.8716 3.3335 36.6666 7.29683 36.6666 13.1935V26.8068C36.6666 32.7035 32.8716 36.6668 27.2216 36.6668Z" fill="#397ED0"/>
<path fill-rule="evenodd" clip-rule="evenodd" d="M18.0225 25.205C17.7041 25.205 17.3825 25.0833 17.1391 24.8383L13.1825 20.8833C12.6941 20.395 12.6941 19.605 13.1825 19.1167C13.6708 18.6283 14.4608 18.6283 14.9491 19.1167L18.0225 22.1867L25.0491 15.1617C25.5375 14.6733 26.3275 14.6733 26.8158 15.1617C27.3041 15.65 27.3041 16.44 26.8158 16.9283L18.9058 24.8383C18.6625 25.0833 18.3425 25.205 18.0225 25.205Z" fill="white"/>
</svg>
