<svg width="24" height="24" viewBox="0 0 24 24" fill="none" xmlns="http://www.w3.org/2000/svg">
<path fill-rule="evenodd" clip-rule="evenodd" d="M10.6644 2.03906C5.8939 2.03906 2.04486 5.94499 2.04486 10.7406C2.04486 15.5362 5.8939 19.4421 10.6644 19.4421C15.4349 19.4421 19.284 15.5362 19.284 10.7406C19.284 8.43623 18.3784 6.22413 16.7631 4.59147C15.1475 2.95846 12.9539 2.03906 10.6644 2.03906ZM4.04486 10.7406C4.04486 7.02932 7.0186 4.03906 10.6644 4.03906C12.4165 4.03906 14.0991 4.74249 15.3414 5.9981C16.584 7.25408 17.284 8.9598 17.284 10.7406C17.284 14.4519 14.3102 17.4421 10.6644 17.4421C7.0186 17.4421 4.04486 14.4519 4.04486 10.7406ZM19.0789 17.6706C18.6884 17.2801 18.0552 17.2801 17.6647 17.6706C17.2742 18.0611 17.2742 18.6943 17.6647 19.0848L20.248 21.6682C20.6386 22.0587 21.2717 22.0587 21.6622 21.6682C22.0528 21.2776 22.0528 20.6445 21.6622 20.254L19.0789 17.6706Z" fill="#0A0A0A"/>
</svg>
