<svg width="24" height="24" viewBox="0 0 24 24" fill="none" xmlns="http://www.w3.org/2000/svg">
<path fill-rule="evenodd" clip-rule="evenodd" d="M12.0001 4.30957L18.6604 8.15487V15.8455L12.0001 19.6908L5.33984 15.8455V8.15487L12.0001 4.30957ZM11.0001 2.57752C11.6189 2.22025 12.3813 2.22025 13.0001 2.57752L19.6604 6.42282C20.2792 6.78008 20.6604 7.44034 20.6604 8.15487V15.8455C20.6604 16.56 20.2792 17.2203 19.6604 17.5775L13.0001 21.4228C12.3813 21.7801 11.6189 21.7801 11.0001 21.4228L4.33984 17.5775C3.72104 17.2203 3.33984 16.56 3.33984 15.8455V8.15487C3.33984 7.44034 3.72104 6.78008 4.33984 6.42282L11.0001 2.57752ZM8 12.0002C8 9.79103 9.79086 8.00017 12 8.00017C14.2091 8.00017 16 9.79103 16 12.0002C16 14.2093 14.2091 16.0002 12 16.0002C9.79086 16.0002 8 14.2093 8 12.0002ZM12 10.0002C10.8954 10.0002 10 10.8956 10 12.0002C10 13.1047 10.8954 14.0002 12 14.0002C13.1046 14.0002 14 13.1047 14 12.0002C14 10.8956 13.1046 10.0002 12 10.0002Z" fill="#0A0A0A"/>
</svg>
