<svg width="24" height="24" viewBox="0 0 24 24" fill="none" xmlns="http://www.w3.org/2000/svg">
<path fill-rule="evenodd" clip-rule="evenodd" d="M20.0011 11.8626C20.0011 16.2814 16.4189 19.8637 12 19.8637C11.0918 19.8637 10.223 19.7131 9.41448 19.4373C8.64097 19.1733 7.71667 19.0872 6.78955 19.3744L6.31361 19.5218C6.4453 18.3882 6.07387 17.3271 5.4996 16.5288C4.55487 15.2157 3.99891 13.607 3.99891 11.8626C3.99891 7.44368 7.58113 3.86146 12 3.86146C16.4189 3.86146 20.0011 7.44368 20.0011 11.8626ZM4.28964 19.5023L4.13182 20.1978L3.87611 21.3244C3.76246 21.8252 4.23351 22.2612 4.724 22.1092L5.82759 21.7673L7.38173 21.2859C7.83444 21.1456 8.31971 21.1781 8.76825 21.3312C9.78203 21.6771 10.8691 21.8648 12 21.8648C17.5241 21.8648 22.0022 17.3866 22.0022 11.8626C22.0022 6.33849 17.5241 1.86035 12 1.86035C6.47594 1.86035 1.9978 6.33849 1.9978 11.8626C1.9978 14.0401 2.69368 16.0552 3.87519 17.6975C4.25202 18.2213 4.43246 18.8731 4.28964 19.5023ZM12.0005 13.3536C12.6623 13.3536 13.1987 12.8171 13.1987 12.1553C13.1987 11.4935 12.6623 10.9571 12.0005 10.9571C11.3387 10.9571 10.8022 11.4935 10.8022 12.1553C10.8022 12.8171 11.3387 13.3536 12.0005 13.3536ZM7.60239 13.354C8.26417 13.354 8.80065 12.8175 8.80065 12.1557C8.80065 11.4939 8.26417 10.9575 7.60239 10.9575C6.94061 10.9575 6.40413 11.4939 6.40413 12.1557C6.40413 12.8175 6.94061 13.354 7.60239 13.354ZM17.5958 12.1553C17.5958 12.8171 17.0593 13.3536 16.3975 13.3536C15.7357 13.3536 15.1993 12.8171 15.1993 12.1553C15.1993 11.4935 15.7357 10.9571 16.3975 10.9571C17.0593 10.9571 17.5958 11.4935 17.5958 12.1553Z" fill="#ABAFB3"/>
</svg>
