<svg width="24" height="24" viewBox="0 0 24 24" fill="none" xmlns="http://www.w3.org/2000/svg">
<path fill-rule="evenodd" clip-rule="evenodd" d="M12 2C8.24414 2.00117 4.80564 4.10678 3.09735 7.45166C1.38905 10.7965 1.69906 14.8166 3.9 17.86L3 20.6C2.93812 20.7789 2.98484 20.9775 3.12 21.11C3.21539 21.2057 3.34486 21.2597 3.48 21.26H3.63L6.48 20.34C10.048 22.7006 14.7224 22.5299 18.1088 19.9154C21.4951 17.301 22.8433 12.8219 21.4625 8.77267C20.0818 4.72341 16.2782 2.00101 12 2ZM20 12C20 16.4183 16.4183 20 12 20C7.58172 20 4 16.4183 4 12C4 7.58172 7.58172 4 12 4C14.1217 4 16.1566 4.84285 17.6569 6.34315C19.1571 7.84344 20 9.87827 20 12ZM15.28 16.68C15.9833 16.5571 16.5914 16.1185 16.93 15.49C17.1019 15.122 17.1577 14.7105 17.09 14.31C17.0416 14.2293 16.9149 14.1681 16.7417 14.0844C16.7003 14.0644 16.6563 14.0431 16.61 14.02C16.37 13.9 15.16 13.3 14.93 13.23C14.7128 13.1255 14.4518 13.1982 14.32 13.4C14.1243 13.7083 13.9071 14.0023 13.67 14.28C13.5083 14.431 13.2719 14.4704 13.07 14.38C12.3325 14.0983 11.6541 13.6811 11.07 13.15C10.5333 12.6528 10.0718 12.0801 9.7 11.45C9.5913 11.274 9.63466 11.0442 9.8 10.92C9.86664 10.8367 9.93636 10.7657 10.0057 10.6951C10.0613 10.6386 10.1166 10.5823 10.17 10.52C10.2778 10.4033 10.3687 10.272 10.44 10.13C10.5202 9.98714 10.5202 9.81286 10.44 9.67C10.38 9.55 9.86 8.27 9.69 7.85C9.52 7.43 9.4 7.43 9.15 7.43H8.87C8.55255 7.41673 8.2418 7.52388 8 7.73C7.41175 8.2527 7.07662 9.00308 7.08 9.79C7.15878 10.716 7.50635 11.5988 8.08 12.33C9.11316 13.931 10.5659 15.2177 12.28 16.05C14.28 16.85 14.84 16.78 15.28 16.68Z" fill="white"/>
</svg>
